Coordinates
version=1
nRows=9
nColumns=36
inDegrees=yes

Units are S.I. units (second, meters, Newtons, ...)
If the header above contains a line with 'inDegrees', this indicates whether rotational values are in degrees (yes) or radians (no).

endheader
time	pelvis_tilt	pelvis_list	pelvis_rotation	pelvis_tx	pelvis_ty	pelvis_tz	hip_flexion_r	hip_adduction_r	hip_rotation_r	knee_angle_r	knee_angle_r_beta	ankle_angle_r	subtalar_angle_r	mtp_angle_r	hip_flexion_l	hip_adduction_l	hip_rotation_l	knee_angle_l	knee_angle_l_beta	ankle_angle_l	subtalar_angle_l	mtp_angle_l	lumbar_extension	lumbar_bending	lumbar_rotation	arm_flex_r	arm_add_r	arm_rot_r	elbow_flex_r	pro_sup_r	arm_flex_l	arm_add_l	arm_rot_l	elbow_flex_l	pro_sup_l
      0.00000000	      0.35572028	     -0.66583910	     -0.67046364	     -1.07123010	      1.30782364	     -0.08104463	     -1.01629288	     -0.51323800	     -5.71543257	      3.70579649	      0.06467835	     -3.11483944	    -13.55216438	     -5.02570864	      1.15908220	     -1.84607926	     -0.60946009	      9.87572600	      0.17236393	      3.05331926	     -5.80061829	     -5.02570864	    -13.03496642	      2.47625935	      0.31961479	      8.10939238	    -11.36463103	     19.10078014	     26.72961380	     73.75543928	      3.24074956	     -8.93095437	     20.27723334	     26.35824990	     64.61443847
      0.00416670	     -0.06672106	     -0.25627789	     -0.58769459	     -1.07196241	      1.30915575	     -0.08200298	     -0.62970721	     -0.68554700	     -6.34284152	      3.75431702	      0.06552519	     -0.91999874	    -11.53529548	     -5.39666642	      1.46862644	     -1.01233099	     -0.57608969	      9.57334018	      0.16708631	      3.47721782	     -3.52411029	     -5.39666642	    -12.27565655	      1.97705332	      0.15282246	      8.11560708	    -10.53273733	     16.58104107	     26.35977399	     72.25723842	      3.34967003	     -8.48029978	     19.16866261	     26.29331582	     64.45118464
      0.00833330	     -0.62864980	      0.25659424	     -0.82802041	     -1.07089123	      1.30769109	     -0.07890501	     -0.26359189	     -0.90907532	     -7.47068221	      3.12702923	      0.05457696	     -0.59417515	    -11.34232493	     -5.54661169	      1.84685113	     -0.60523042	     -1.24180468	      9.28769269	      0.16210082	      3.45241042	     -3.01101186	     -5.54661169	    -11.72247581	      1.00641549	      0.27754571	      7.88415914	     -9.89834242	     15.59997854	     27.01912169	     71.48484814	      3.34445010	     -8.94967052	     18.77088946	     26.80356425	     64.33322029
      0.01250000	     -0.04037766	      0.40162864	     -0.85095945	     -1.07174036	      1.31225872	     -0.08010132	     -1.01567733	     -1.07897430	     -8.43551492	      2.83839124	      0.04953927	      0.14182457	     -9.77896108	     -6.26977048	      0.88201412	     -0.44142030	     -1.74923586	      8.72531124	      0.15228541	      3.59617168	     -2.27050040	     -6.26977048	    -12.69900496	      0.67504017	      0.98138432	      7.14882851	     -8.95445500	      8.82985903	     28.01426333	     75.25336356	      4.26729186	     -8.91491611	     17.66660208	     26.64026213	     70.79617652
      0.01666670	      0.01347765	      0.39357025	     -0.79176074	     -1.07107704	      1.31008544	     -0.08065774	     -1.16413869	     -1.05545542	     -8.57256028	      2.56424717	      0.04475456	      0.29476613	     -9.33574551	     -6.33312988	      0.60287980	     -0.41394846	     -1.87329533	      8.21161082	      0.14331965	      3.68005402	     -2.30060901	     -6.33312988	    -12.91297627	      0.68105258	      0.84293232	      7.10535084	     -8.80899566	      8.56395546	     28.57038565	     74.63147108	      4.31164086	     -9.03931843	     17.57574156	     27.11694535	     70.43232168
      0.02083330	      0.34273115	      0.37612700	     -0.68455345	     -1.07219555	      1.31131408	     -0.08010964	     -1.50702098	     -1.00446811	     -8.66861430	      2.58732069	      0.04515726	      0.51051258	     -8.90918212	     -6.40707660	      0.24990704	     -0.46615478	     -1.97145312	      8.05381184	      0.14056553	      3.67696396	     -2.15667859	     -6.40707660	    -13.52585610	      0.70024024	      0.88279883	      7.20905802	     -8.78198699	      8.34106664	     29.06339896	     74.07605474	      4.63429361	     -9.12821078	     17.59139042	     27.78353219	     70.22721853
      0.02500000	      0.52740311	      0.34337716	     -0.56791800	     -1.06915751	      1.30985303	     -0.08060102	     -1.81020798	     -1.00316942	     -8.89772240	      2.52142720	      0.04400721	      0.63294451	     -8.61232973	     -6.48529672	     -0.03003102	     -0.50110908	     -2.02555716	      7.88627327	      0.13764143	      3.78127246	     -2.10127311	     -6.48529672	    -13.73163262	      0.77403546	      0.84659893	      7.13296467	     -8.80995705	      8.29962551	     29.55986325	     73.50394120	      4.68642768	     -9.16542250	     17.72462619	     28.27564494	     70.04032557
      0.02916670	      0.63083346	      0.34217653	     -0.45414433	     -1.06829296	      1.30823973	     -0.08061371	     -2.01631074	     -1.01665853	     -8.93382673	      2.56988639	      0.04485298	      0.61175982	     -8.68313039	     -6.76992404	     -0.15754207	     -0.51560813	     -2.20488312	      7.95382479	      0.13882043	      3.98989979	     -1.89486693	     -6.76992404	    -13.76053467	      0.82275702	      0.92353160	      7.10571695	     -9.02734701	      9.28167256	     29.67924667	     72.60600088	      4.95408926	     -9.32283555	     19.07224409	     28.31002473	     70.76000279
      0.03333330	      0.74847266	      0.35455142	     -0.32191364	     -1.06886244	      1.31093836	     -0.08049280	     -2.25884375	     -1.00564222	     -9.09077202	      2.56773360	      0.04481541	      0.75758088	     -8.37586836	     -7.18783412	     -0.33379330	     -0.50516036	     -2.18221561	      7.90154749	      0.13790802	      3.83887533	     -2.04797948	     -7.18783412	    -13.93059924	      0.84374460	      0.86751729	      6.98375262	     -9.06561232	      8.84378427	     30.15429132	     75.66178617	      4.96449529	     -9.29494491	     18.03072910	     28.84132843	     77.03432693
